<svg xmlns="http://www.w3.org/2000/svg" xmlns:xlink="http://www.w3.org/1999/xlink" width="1024" height="1024" viewBox="0 0 1024 1024"><path fill="#363635" d="M0 0L1024 0L1024 1024L0 1024L0 0Z"></path><defs><linearGradient id="gradient_0" gradientUnits="userSpaceOnUse" x1="522.52771" y1="670.75427" x2="517.2796" y2="392.53165"><stop offset="0" stop-color="#63696E"></stop><stop offset="1" stop-color="#BBBBBA"></stop></linearGradient></defs><path fill="url(#gradient_0)" d="M599.96 344.166C623.615 338.663 648.762 331.522 672.32 325.221L767.762 299.895L807.664 289.163C816.149 286.865 825.628 284.061 834.178 282.332C833.293 306.373 828.902 331.776 826.916 355.9C826.088 365.967 825.058 377.3 823.541 387.222C822.48 402.293 820.079 420.754 818.332 435.891L808.628 528.124C793.924 516.36 779.85 503.078 765.528 490.841C760.12 486.22 750.916 477.507 745.134 473.79C741.694 476.648 734.589 485.603 731.194 489.58L704.5 520.633L611.249 628.457C604.06 636.651 596.916 644.884 589.816 653.155C586.522 656.982 582.073 662.505 578.667 666.056C573.475 672.699 566.362 680.529 560.751 686.965C555.328 693.186 547.369 702.521 541.482 707.946C537.53 704.43 529.666 695.273 525.728 690.945C522.117 686.976 514.664 679.402 511.724 675.653C510.511 674.761 507.734 671.699 506.587 670.404C485.732 646.862 463.666 624.422 442.832 600.863C439.604 597.212 436.373 593.348 432.695 590.169C427.103 595.237 415.168 609.949 409.732 616.308C396.034 632.327 382.198 648.228 368.225 664.008C361.957 671.298 355.639 678.546 349.272 685.75C346.569 688.829 342.032 694.329 339.267 696.991L244.911 696.96C227.962 696.951 210.399 697.225 193.521 696.885C199.295 690.595 204.964 684.208 210.524 677.727C211.674 676.412 216.798 670.417 217.646 669.77C225.833 659.71 236.189 648.405 244.878 638.507L297.476 578.418C330.966 539.561 364.651 500.871 398.528 462.351C409.392 450.033 420.448 436.841 431.412 424.824C437.301 430.268 450.217 445.477 456.205 452.119L513.56 515.262C520.994 523.345 532.55 536.87 540.19 543.982C544.868 539.759 551.27 531.824 555.585 526.763C563.594 517.309 571.663 507.905 579.792 498.554L637.363 432.454C642.72 426.308 660.751 406.359 663.875 400.967C660.698 397.159 656.356 394.31 652.935 390.557C651.012 389.497 601.937 346.519 599.96 344.166Z"></path><path fill="#CDCDCD" d="M599.96 344.166C623.615 338.663 648.762 331.522 672.32 325.221L767.762 299.895L807.664 289.163C816.149 286.865 825.628 284.061 834.178 282.332C833.293 306.373 828.902 331.776 826.916 355.9C826.088 365.967 825.058 377.3 823.541 387.222C822.251 389.017 820.711 402.495 821.02 404.712C810.572 399.392 806.924 406.839 798.025 405.295C790.713 404.026 781.242 402.115 773.84 400.537C768.708 399.443 761.985 396.207 756.389 394.91C730.005 388.793 702.483 387.495 675.486 388.446C670.269 388.621 656.88 391.533 652.935 390.557C651.012 389.497 601.937 346.519 599.96 344.166Z"></path><path fill="#5B636A" d="M217.646 669.77C218.834 669.413 220.047 668.929 221.089 669.618C220.28 670.809 220.385 670.341 220.151 671.641C223.742 670.03 240.316 646.415 248.143 641.173L249.964 642.31C257.74 642.098 267.463 642.764 275.192 644.025C278.156 644.508 279.729 644.146 282.719 644.032C287.939 643.833 293.152 644.118 298.366 643.578C299.347 643.476 305.711 642.965 305.648 642.929C309.534 645.186 309.615 644.273 313.545 643.567C317.803 644.094 323.807 645.285 327.97 645.839C340.527 647.509 354.742 646.419 364.48 655.978C366.051 657.52 368.36 661.755 368.225 664.008C361.957 671.298 355.639 678.546 349.272 685.75C346.569 688.829 342.032 694.329 339.267 696.991L244.911 696.96C227.962 696.951 210.399 697.225 193.521 696.885C199.295 690.595 204.964 684.208 210.524 677.727C211.674 676.412 216.798 670.417 217.646 669.77Z"></path><path fill="#5B636A" d="M511.724 675.653L512.177 675.595L512.461 675.164C511.144 673.93 510.48 673.324 509.363 671.924C509.866 669.886 511.584 667.031 513.165 665.611C524.727 656.495 544.642 658.274 558.614 657.972C564.969 657.834 568.062 658.111 573.127 661.305C572.973 661.208 575.117 660.138 576.295 660.156C577.162 661.17 577.703 662.265 578.37 663.027C578.322 664.112 578.47 664.991 578.667 666.056C573.475 672.699 566.362 680.529 560.751 686.965C555.328 693.186 547.369 702.521 541.482 707.946C537.53 704.43 529.666 695.273 525.728 690.945C522.117 686.976 514.664 679.402 511.724 675.653Z"></path><path fill="#C1C1C2" d="M821.02 404.712C820.711 402.495 822.251 389.017 823.541 387.222C822.48 402.293 820.079 420.754 818.332 435.891L817.578 435.662C817.856 428.845 819.82 420.448 818.965 413.771C818.338 408.872 820.734 407.912 821.02 404.712Z"></path><style>@media (prefers-color-scheme: light) { :root { filter: none; } }
@media (prefers-color-scheme: dark) { :root { filter: none; } }
</style></svg>